<?xml version="1.0" encoding="UTF-8"?>
<svg id="Layer_1" data-name="Layer 1" xmlns="http://www.w3.org/2000/svg" viewBox="0 0 799.29 789.43">
  <defs>
    <style>
      .cls-1 {
        fill: #003f51;
      }
    </style>
  </defs>
  <path class="cls-1" d="M95.9,564.63h-3.74c-5.15,14.5-15.13,17.15-46.94,17.46-8.26,0-14.19.31-22.46,0-.31-17.62-.31-45.84-.31-63.46l26.67-.16c6.7.31,11.54,4.99,12.63,10.29h2.34l.16-24.79h-2.5c-1.09,7.64-7.48,11.23-12.63,11.23l-26.67.16c0-19.65.31-28.54.31-48.18,7.8-.31,13.1-.16,21.36,0,28.38.31,40.85,3.9,44.6,12.79l3.43-.47-3.9-15.75h-44.44c-7.8,0-13.57-.16-21.05-.16l-16.37.16H0v2.65c7.95.62,7.95,3.12,7.95,6.08v100.73c0,5.3-.62,8.73-7.95,9.82v2.34h91.69l4.21-20.74Z"/>
  <path class="cls-1" d="M144.33,583.34c-17.31.16-34.77-12.32-39.76-30.56l-2.96.31,2.03,23.08c11.23,6.55,26.51,10.92,41.64,10.92,11.69-.16,23.86-3.12,32.9-9.67,8.42-6.08,14.19-15.13,13.88-27.91-.78-26.35-30.88-35.4-51.93-41.01-13.88-3.9-24.33-10.45-23.55-22.14.47-6.08,2.81-10.76,6.39-14.03,5.61-5.15,13.88-7.33,22.3-7.17,17.78.31,32.12,14.35,35.4,26.35h3.27l-4.52-22.92c-10.76-4.99-20.11-7.33-34.31-7.33-11.85,0-21.83,2.96-29.16,7.95-8.89,6.08-12.94,15.13-12.63,24.17.47,12.48,7.48,19.34,16.68,24.01,8.42,4.06,18.56,6.39,27.29,9.2,16.06,5.3,30.09,13.25,29.47,29.63-.78,18.09-15.44,26.82-32.43,27.13Z"/>
  <path class="cls-1" d="M309.35,486.66h3.43l-6.24-23.08h-108.37l-6.7,23.08,3.59-.16c7.49-12.79,14.81-19.49,50.05-19.49,0,36.33.16,72.66-.16,109-.78,3.12-1.87,5.93-7.8,6.86v2.34h30.56v-2.34c-5.92-.94-7.48-4.37-7.8-6.86-.31-36.33,0-72.67,0-109,35.71,0,41.95,6.7,49.43,19.65Z"/>
  <path class="cls-1" d="M386.76,583.03v2.34h35.08v-2.34c-7.95-.16-10.14-5.77-12.63-11.38l-47.72-107.91h-5.46l-51.3,107.91c-2.96,7.33-7.95,11.38-13.88,11.38v2.34h29.63v-2.34c-6.55,0-14.66-2.96-10.76-11.07l14.35-30.72c2.03-1.09,4.68-1.56,7.49-1.56,6.55,0,14.66,2.49,22.92,5.15,8.11,2.49,16.22,4.99,22.92,4.99,2.18,0,4.06-.16,5.93-.78l9.82,22.61c2.49,6.08,1.56,11.38-6.39,11.38ZM377.25,546.54c-6.08,0-13.88-2.5-21.83-4.99-8.42-2.65-16.84-5.3-24.01-5.3-1.87,0-3.59.16-5.3.62l27.13-58.01,28.85,67.05c-1.4.47-3.12.62-4.83.62Z"/>
  <path class="cls-1" d="M426.42,583.03v2.34c6.7,0,15.59-.16,22.3,0,14.5.31,37.74.62,49.59-2.49,25.57-7.02,37.42-32.12,37.58-57.54,0-27.45-14.03-51.61-41.95-59.1-9.82-2.65-21.83-2.81-33.21-2.81l-27.91.31h-6.39v2.65c7.95.62,7.95,3.12,7.95,6.08v100.73c0,5.3-.47,8.73-7.95,9.82ZM449.03,467.17c11.85-.47,30.56-.94,40.86,2.34,20.11,6.39,30.09,28.54,30.72,53.49.62,23.86-7.8,46.78-24.48,55.36-8.42,4.37-34.93,4.06-45.06,3.74h-2.03v-114.92Z"/>
  <path class="cls-1" d="M572.29,466.08v-2.34c-9.36-.16-21.21-.16-30.56,0v2.34c5.93.94,7.02,3.74,7.8,6.86.31,34.15.31,68.92,0,103.23-.78,3.12-1.87,5.93-7.8,6.86v2.34h30.56v-2.34c-5.93-.94-7.64-3.74-7.8-6.55-.31-34.31-.31-69.23,0-103.54.16-2.49,1.87-5.92,7.8-6.86Z"/>
  <path class="cls-1" d="M576.07,583.03v2.34h29.63v-2.34c-6.55,0-14.66-2.96-10.76-11.07l14.35-30.72c2.03-1.09,4.68-1.56,7.49-1.56,6.55,0,14.66,2.49,22.92,5.15,8.11,2.49,16.22,4.99,22.92,4.99,2.18,0,4.06-.16,5.93-.78l9.82,22.61c2.49,6.08,1.56,11.38-6.39,11.38v2.34h35.08v-2.34c-7.95-.16-10.14-5.77-12.63-11.38l-47.72-107.91h-5.46l-51.3,107.91c-2.96,7.33-7.95,11.38-13.88,11.38ZM638.44,478.87l28.85,67.05c-1.4.47-3.12.62-4.83.62-6.08,0-13.88-2.5-21.83-4.99-8.42-2.65-16.84-5.3-24.01-5.3-1.87,0-3.59.16-5.3.62l27.13-58.01Z"/>
  <path class="cls-1" d="M751.56,583.34c-17.31.16-34.77-12.32-39.76-30.56l-2.96.31,2.03,23.08c11.23,6.55,26.51,10.92,41.64,10.92,11.69-.16,23.86-3.12,32.9-9.67,8.42-6.08,14.19-15.13,13.88-27.91-.78-26.35-30.88-35.4-51.93-41.01-13.88-3.9-24.33-10.45-23.55-22.14.47-6.08,2.81-10.76,6.39-14.03,5.61-5.15,13.88-7.33,22.3-7.17,17.78.31,32.12,14.35,35.4,26.35h3.27l-4.52-22.92c-10.76-4.99-20.12-7.33-34.31-7.33-11.85,0-21.83,2.96-29.16,7.95-8.89,6.08-12.94,15.13-12.63,24.17.47,12.48,7.48,19.34,16.68,24.01,8.42,4.06,18.56,6.39,27.29,9.2,16.06,5.3,30.09,13.25,29.47,29.63-.78,18.09-15.44,26.82-32.43,27.13Z"/>
  <path class="cls-1" d="M63.7,610.96v-3.45c-13.8-.23-31.28-.23-45.07,0v3.45c8.74,1.38,10.35,5.52,11.5,10.12l.23,125.57c0,20.01-7.82,36.8-30.36,36.8v4.14c34.73,2.3,51.97-14.26,51.97-48.52l.23-117.98c.23-3.68,2.76-8.74,11.5-10.12Z"/>
  <path class="cls-1" d="M228.44,766.65l-70.37-159.14h-8.05l-75.66,159.14c-4.37,10.81-11.73,16.79-20.47,16.79v3.45h43.7v-3.45c-9.66,0-21.62-4.37-15.87-16.33l21.16-45.31c2.99-1.61,6.9-2.3,11.04-2.3,9.66,0,21.62,3.68,33.81,7.59,11.96,3.68,23.92,7.36,33.81,7.36,3.22,0,5.98-.23,8.74-1.15l14.49,33.35c3.68,8.97,2.3,16.79-9.43,16.79v3.45h51.74v-3.45c-11.73-.23-14.95-8.51-18.63-16.79ZM181.29,729.62c-8.97,0-20.47-3.68-32.2-7.36-12.42-3.91-24.84-7.82-35.42-7.82-2.76,0-5.29.23-7.82.92l40.02-85.55,42.54,98.89c-2.07.69-4.6.92-7.13.92Z"/>
  <path class="cls-1" d="M387.03,741.35c-9.66,25.99-31.05,40.71-59.1,42.32-25.07,1.15-45.53-7.59-58.18-30.13-9.43-16.79-13.11-37.94-12.65-57.95,1.38-42.54,20.01-84.63,68.3-85.55,8.05,0,14.95.46,23,3.45,16.56,6.21,28.52,19.32,32.2,32.43h4.83l-5.52-30.59c-17.94-8.51-34.04-11.27-53.81-11.27-20.93.46-42.77,5.52-58.41,18.4-22.08,17.94-33.12,47.14-33.12,76.58,0,26.91,8.51,50.59,23.92,66.69,14.26,15.18,34.96,24.15,60.71,23.69,22.08-.23,45.99-3.91,65.31-14.49l6.21-33.58h-3.68Z"/>
  <path class="cls-1" d="M564.1,766.65l-70.37-159.14h-8.05l-75.66,159.14c-4.37,10.81-11.73,16.79-20.47,16.79v3.45h43.7v-3.45c-9.66,0-21.62-4.37-15.87-16.33l21.16-45.31c2.99-1.61,6.9-2.3,11.04-2.3,9.66,0,21.62,3.68,33.81,7.59,11.96,3.68,23.92,7.36,33.81,7.36,3.22,0,5.98-.23,8.74-1.15l14.49,33.35c3.68,8.97,2.3,16.79-9.43,16.79v3.45h51.74v-3.45c-11.73-.23-14.95-8.51-18.63-16.79ZM516.96,729.62c-8.97,0-20.47-3.68-32.2-7.36-12.42-3.91-24.84-7.82-35.42-7.82-2.76,0-5.29.23-7.82.92l40.02-85.55,42.54,98.89c-2.07.69-4.6.92-7.13.92Z"/>
  <path class="cls-1" d="M728.03,777.22c-14.72,0-22.08-19.32-34.72-38.63-6.67-10.35-15.41-19.78-28.29-26.22,30.59-2.07,62.55-17.94,62.09-54.04-.23-20.47-11.5-40.93-34.5-47.15-13.11-3.45-30.82-3.68-44.84-3.91-19.32,0-38.87,0-58.18.23v3.45c8.74,1.15,10.35,5.52,11.5,10.12.46,50.36.46,101.65,0,152.01-1.15,4.83-2.76,8.97-11.5,10.12v3.68h45.07v-3.68c-8.74-1.15-11.27-5.29-11.5-9.66-.23-21.16-.23-42.54-.23-64.16,26.45.46,37.72,19.78,49.44,41.17,10.58,19.55,22.31,38.41,45.54,37.94,11.04,0,21.16-5.29,25.99-14.49l-2.53-1.61c-2.99,2.99-7.82,4.83-13.34,4.83ZM622.93,704.55c-.23-30.59.23-60.94.23-91.3,5.98-.23,16.33-.23,22.31-.23,13.57,0,26.91,1.61,36.34,6.67,14.26,7.59,21.62,24.61,21.16,41.62-.69,28.29-22.77,45.76-49.21,46.69-8.74-2.53-18.86-3.91-30.81-3.45Z"/>
  <path class="cls-1" d="M748.65,607.51v3.45c8.74,1.38,10.35,5.52,11.5,10.12.46,50.36.46,101.65,0,152.24-1.15,4.6-2.76,8.74-11.5,10.12v3.45h45.07v-3.45c-8.74-1.38-11.27-5.52-11.5-9.66-.46-50.59-.46-102.11,0-152.7.23-3.68,2.76-8.74,11.5-10.12v-3.45c-13.8-.23-31.28-.23-45.07,0Z"/>
  <path class="cls-1" d="M185.22,258.95h6.7v-.76c0-81.46,65.17-147.94,146.1-150.15v52.11c-52.2,2.19-93.99,45.32-93.99,98.04s41.8,95.85,93.99,98.04v43.13h.76v1.88h266.42v-191.21C605.2,94.22,510.98,0,395.16,0c-56.01,0-108.73,21.87-148.45,61.58-39.72,39.71-61.59,92.4-61.59,148.36-1.09,37.17-.58,45.39-.02,48.39l.12.62ZM433.53,258.2c0,50.37-40.98,91.35-91.35,91.35s-91.35-40.98-91.35-91.35,40.98-91.35,91.35-91.35,91.35,40.98,91.35,91.35ZM440.33,258.2c0-52.73-41.8-95.86-93.99-98.04v-52.11c80.93,2.22,146.1,68.69,146.1,150.16v136.25h-146.1v-38.21c52.2-2.19,93.99-45.32,93.99-98.04ZM598.41,394.45h-99.17v-136.25c0-85.21-68.22-154.73-152.9-156.95V12.77c15.65-3.88,32-5.97,48.83-5.97,112.07,0,203.24,91.18,203.24,203.24v184.41ZM338.02,15.03v86.19c-67.66,1.78-126.61,46.8-146.18,111.45.03-.88.05-1.76.08-2.63,0-92.23,61.77-170.26,146.1-195.01Z"/>
</svg>