<?xml version="1.0" encoding="UTF-8"?>
<svg id="Layer_1" data-name="Layer 1" xmlns="http://www.w3.org/2000/svg" viewBox="0 0 548.14 522.76">
  <defs>
    <style>
      .cls-1 {
        fill: #fff;
      }
    </style>
  </defs>
  <path class="cls-1" d="M274.48,0c-72.97,0-141.66,28.49-193.41,80.23C29.33,131.96.84,200.62.84,273.53c-1.42,48.42-.76,59.13-.03,63.05l.13.72h8.53v-.88c0-106.31,85.1-193.05,190.75-195.82v68.14c-68.07,2.74-122.62,58.95-122.62,127.69s54.54,124.94,122.62,127.68v56.09h0v2.56h347.9v-249.1C548.14,122.76,425.38,0,274.48,0ZM210.62,131.95V16.47c20.46-5.08,41.84-7.83,63.86-7.83,146.13,0,265.01,118.88,265.01,265.01v240.46h-129.47v-177.7c0-111.07-88.98-201.69-199.4-204.46ZM200.23,19.31v112.62c-88.51,2.24-165.6,61.27-190.87,145.98.04-1.42.08-2.84.12-4.25,0-120.35,80.67-222.15,190.75-254.35ZM205.43,455.59c-65.71,0-119.17-53.46-119.17-119.17s53.46-119.18,119.17-119.18,119.18,53.46,119.18,119.18-53.46,119.17-119.18,119.17ZM333.24,336.42c0-68.74-54.54-124.95-122.62-127.69v-68.14c105.65,2.77,190.76,89.52,190.76,195.82v177.7h-190.76v-50.02c68.07-2.74,122.62-58.95,122.62-127.68Z"/>
</svg>